<?xml version="1.0" encoding="iso-8859-1"?>
<!-- Uploaded to: SVG Repo, www.svgrepo.com, Transformed by: SVG Repo Mixer Tools -->
<svg height="800px" width="800px" version="1.1" id="Layer_1" xmlns="http://www.w3.org/2000/svg" xmlns:xlink="http://www.w3.org/1999/xlink" 
	 viewBox="0 0 512 512" xml:space="preserve">
<path style="fill:#E5E5E5;" d="M338.65,0H108.948C86.752,0,68.696,18.056,68.696,40.252v431.497
	c0,22.195,18.056,40.252,40.252,40.252H338.65c22.195,0,40.252-18.056,40.252-40.252V40.252C378.901,18.056,360.845,0,338.65,0z"/>
<g>
	<path style="fill:#458FDE;" d="M378.901,40.252C378.901,18.056,360.845,0,338.65,0H108.948C86.752,0,68.696,18.056,68.696,40.252
		v30.055h310.205V40.252z"/>
	<path style="fill:#458FDE;" d="M68.696,418.616v53.132c0,22.195,18.056,40.252,40.252,40.252H338.65
		c22.195,0,40.252-18.056,40.252-40.252v-53.132H68.696z"/>
</g>
<path style="fill:#CCCCCC;" d="M106.801,471.748V40.252C106.801,18.056,124.857,0,147.052,0h-38.105
	C86.752,0,68.696,18.056,68.696,40.252v431.497c0,22.195,18.056,40.252,40.252,40.252h38.105
	C124.857,512,106.801,493.944,106.801,471.748z"/>
<g>
	<path style="fill:#4F5AA8;" d="M147.052,0h-38.105C86.752,0,68.696,18.056,68.696,40.252v30.055h38.105V40.252
		C106.801,18.056,124.857,0,147.052,0z"/>
	<path style="fill:#4F5AA8;" d="M106.801,471.748v-53.132H68.696v53.132c0,22.195,18.056,40.252,40.252,40.252h38.105
		C124.857,512,106.801,493.944,106.801,471.748z"/>
	<path style="fill:#4F5AA8;" d="M248.486,437.937h-51.522c-4.446,0-8.05,3.603-8.05,8.05v34.348c0,4.447,3.604,8.05,8.05,8.05
		h51.522c4.446,0,8.05-3.603,8.05-8.05v-34.348C256.537,441.54,252.932,437.937,248.486,437.937z"/>
	<path style="fill:#4F5AA8;" d="M231.312,50.449h-17.174c-4.446,0-8.05-3.603-8.05-8.05s3.604-8.05,8.05-8.05h17.174
		c4.446,0,8.05,3.603,8.05,8.05S235.758,50.449,231.312,50.449z"/>
</g>
<path style="fill:#FFD652;" d="M471.748,83.723H278.541c-22.195,0-40.252,18.056-40.252,40.252v264.05
	c0,3.27,1.977,6.214,5.004,7.451c0.986,0.404,2.02,0.599,3.045,0.599c2.12,0,4.202-0.837,5.746-2.41l50.326-51.259h169.338
	c22.195,0,40.252-18.056,40.252-40.252v-178.18C512,101.78,493.944,83.723,471.748,83.723z"/>
<path style="fill:#FB9D46;" d="M298.935,303.905V178.18c0-4.446,3.604-8.05,8.05-8.05h136.319c4.446,0,8.05,3.604,8.05,8.05v125.724
	c0,4.446-3.604,8.05-8.05,8.05H306.985C302.539,311.955,298.935,308.351,298.935,303.905z"/>
<path style="fill:#FF7452;" d="M435.254,178.18H315.036c-4.446,0-8.05,3.603-8.05,8.05v109.624c0,4.447,3.604,8.05,8.05,8.05
	h120.218c4.446,0,8.05-3.603,8.05-8.05V186.231C443.304,181.784,439.7,178.18,435.254,178.18z"/>
<path style="fill:#E24642;" d="M315.036,178.18c-4.446,0-8.05,3.603-8.05,8.05v109.624c0,4.447,3.604,8.05,8.05,8.05h104.566
	L340.743,178.18H315.036z"/>
<path style="fill:#C42725;" d="M383.195,214.536v-25.613c14.83-7.444,46.236-23.592,52.581-29.938
	c4.764-4.764,7.388-11.099,7.388-17.836c0-6.738-2.624-13.073-7.388-17.835c-4.764-4.765-11.099-7.389-17.836-7.389
	c-6.738,0-13.073,2.623-17.836,7.388c-5.156,5.157-16.785,26.862-24.959,42.776c-8.174-15.914-19.803-37.62-24.958-42.775
	c-4.765-4.765-11.099-7.389-17.837-7.389c-6.739,0-13.073,2.623-17.836,7.388c-4.764,4.764-7.388,11.099-7.388,17.836
	c0,6.738,2.624,13.073,7.388,17.835c6.346,6.347,37.752,22.495,52.581,29.939v25.613h-60.109v16.101h60.109v73.269h16.101v-73.269
	h60.109v-16.101L383.195,214.536L383.195,214.536z M411.489,134.697c8.326-8.326,21.227,4.576,12.902,12.903
	c-2.453,2.438-15.526,9.832-30.745,17.842C401.655,150.226,409.05,137.151,411.489,134.697
	C413.212,132.974,409.05,137.151,411.489,134.697z M325.898,147.6c-8.326-8.326,4.577-21.228,12.903-12.903
	c2.438,2.453,9.833,15.529,17.843,30.746C341.426,157.434,328.351,150.037,325.898,147.6
	C324.174,145.876,328.351,150.037,325.898,147.6z"/>
<path style="fill:#AFF078;" d="M164.763,128.805H40.252C18.056,128.805,0,146.861,0,169.057v126.658
	c0,22.195,18.056,40.252,40.252,40.252h107.606l42.667,56.889c1.55,2.066,3.955,3.221,6.441,3.22c0.849,0,1.708-0.134,2.545-0.413
	c3.288-1.096,5.504-4.172,5.504-7.637V169.057C205.015,146.861,186.958,128.805,164.763,128.805z"/>
<path style="fill:#5AC779;" d="M93.008,310.861c-6.24-4.561-61.179-45.691-68.581-85.169c-3.134-16.717,1.373-34.381,12.055-47.254
	c9.898-11.925,23.908-18.493,39.452-18.493c8.691,0,17.598,2.035,26.574,6.06c8.976-4.025,17.882-6.06,26.574-6.06
	c15.541,0,29.552,6.568,39.45,18.493c10.684,12.873,15.191,30.538,12.057,47.253c-7.402,39.477-62.342,80.608-68.581,85.169l0,0
	C106.349,314.996,98.666,314.996,93.008,310.861L93.008,310.861z"/>
<path style="fill:#E24642;" d="M102.507,184.084c-40.788-23.614-67.718,9.509-62.256,38.642
	c6.44,34.348,62.256,75.136,62.256,75.136s55.816-40.788,62.256-75.136C170.226,193.593,143.296,160.47,102.507,184.084z"/>
<path style="fill:#C42725;" d="M122.53,280.688c0,0-55.816-40.788-62.256-75.136c-1.785-9.523-0.108-19.47,4.38-27.724
	c-18.145,6.016-27.896,26.272-24.403,44.898c6.44,34.348,62.256,75.136,62.256,75.136s11.243-8.218,24.216-20.378
	C124.096,279.542,122.53,280.688,122.53,280.688z"/>
<circle style="fill:#FFD652;" cx="130.415" cy="211.992" r="15.027"/>
</svg>