<?xml version="1.0" encoding="iso-8859-1"?>
<!-- Uploaded to: SVG Repo, www.svgrepo.com, Transformed by: SVG Repo Mixer Tools -->
<svg height="800px" width="800px" version="1.1" id="Layer_1" xmlns="http://www.w3.org/2000/svg" xmlns:xlink="http://www.w3.org/1999/xlink" 
	 viewBox="0 0 511.999 511.999" xml:space="preserve">
<circle style="fill:#F1F4FB;" cx="305.403" cy="215.579" r="152.702"/>
<g>
	<path style="fill:#A0D755;" d="M395.227,222.316h-6.737v-69.614c0-6.201-5.027-11.228-11.228-11.228s-11.228,5.027-11.228,11.228
		v69.614h-37.649l14.93-67.18c1.342-6.053-2.474-12.048-8.527-13.395c-6.097-1.364-12.052,2.469-13.404,8.527L303.42,231.11
		c-0.737,3.325,0.079,6.803,2.211,9.461c2.123,2.658,5.351,4.202,8.755,4.202h51.649v24.702c0,6.201,5.027,11.228,11.228,11.228
		s11.228-5.027,11.228-11.228v-24.702h6.737c6.201,0,11.228-5.027,11.228-11.228C406.456,227.343,401.429,222.316,395.227,222.316z"
		/>
	<path style="fill:#A0D755;" d="M255.789,239.574c19.106-10.425,42.878-23.399,42.878-53.508
		c-0.001-24.588-21.159-44.592-47.159-44.592s-47.158,20.004-47.158,44.592c0,6.201,5.027,11.228,11.228,11.228
		c6.201,0,11.228-5.027,11.228-11.228c0-12.206,11.079-22.136,24.702-22.136c13.623,0,24.702,9.93,24.702,22.136
		c0,15.974-11.851,23.25-31.176,33.799c-18.131,9.89-40.684,22.201-40.684,49.609c0,6.201,5.027,11.228,11.228,11.228h71.86
		c6.201,0,11.228-5.027,11.228-11.228c0-6.201-5.027-11.228-11.228-11.228h-57.316C234.657,251.421,243.631,246.21,255.789,239.574z
		"/>
	<path style="fill:#A0D755;" d="M465.324,359.473l-14.68,2.935c39.171-38.698,61.355-91.199,61.355-146.829
		c0-113.917-92.675-206.596-206.596-206.596c-67.14,0-130.324,32.816-169.026,87.781c-2.86,4.057-1.886,9.658,2.167,12.517
		c4.07,2.846,9.666,1.877,12.517-2.176c35.343-50.192,93.044-80.157,154.342-80.157c104.009,0,188.632,84.618,188.632,188.632
		c0,51.465-20.803,100.001-57.456,135.462l3.386-16.926c0.973-4.864-2.184-9.597-7.043-10.57c-4.86-0.96-9.606,2.179-10.57,7.043
		l-8.982,44.912c-0.587,2.947,0.333,5.991,2.457,8.115c1.702,1.702,3.992,2.632,6.351,2.632c0.587,0,1.176-0.057,1.763-0.175
		l44.912-8.982c4.86-0.973,8.018-5.706,7.043-10.57C474.921,361.662,470.228,358.495,465.324,359.473z"/>
</g>
<g>
	<path style="fill:#AFB9D2;" d="M305.403,80.842c-4.965,0-8.982-4.022-8.982-8.982V53.895c0-4.961,4.017-8.982,8.982-8.982
		s8.982,4.022,8.982,8.982V71.86C314.385,76.82,310.368,80.842,305.403,80.842z"/>
	<path style="fill:#AFB9D2;" d="M305.403,386.246c-4.965,0-8.982-4.022-8.982-8.982v-17.965c0-4.961,4.017-8.982,8.982-8.982
		s8.982,4.022,8.982,8.982v17.965C314.385,382.224,310.368,386.246,305.403,386.246z"/>
</g>
<g>
	<path style="fill:#D5DCED;" d="M180.93,152.702c-1.526,0-3.07-0.386-4.482-1.201l-15.561-8.982
		c-4.298-2.483-5.772-7.974-3.29-12.272c2.492-4.303,7.974-5.777,12.272-3.29l15.561,8.982c4.298,2.483,5.772,7.974,3.29,12.272
		C187.052,151.092,184.034,152.702,180.93,152.702z"/>
	<path style="fill:#D5DCED;" d="M445.42,305.403c-1.526,0-3.07-0.386-4.482-1.201l-15.561-8.982
		c-4.298-2.483-5.772-7.974-3.29-12.272c2.483-4.298,7.974-5.768,12.272-3.29l15.561,8.982c4.298,2.483,5.772,7.974,3.29,12.272
		C451.543,303.793,448.526,305.403,445.42,305.403z"/>
	<path style="fill:#D5DCED;" d="M377.254,100.096c-1.526,0-3.07-0.386-4.482-1.201c-4.298-2.483-5.772-7.978-3.29-12.272
		l8.982-15.556c2.483-4.303,7.982-5.768,12.272-3.29c4.298,2.483,5.772,7.978,3.29,12.272l-8.982,15.556
		C383.376,98.487,380.359,100.096,377.254,100.096z"/>
	<path style="fill:#D5DCED;" d="M224.552,364.583c-1.526,0-3.07-0.386-4.482-1.201c-4.298-2.483-5.772-7.978-3.29-12.272
		l8.982-15.557c2.483-4.303,7.982-5.777,12.272-3.29c4.298,2.483,5.772,7.978,3.29,12.272l-8.982,15.557
		C230.674,362.973,227.657,364.583,224.552,364.583z"/>
	<path style="fill:#D5DCED;" d="M429.876,152.702c-3.106,0-6.123-1.61-7.79-4.491c-2.483-4.298-1.008-9.79,3.29-12.272l15.561-8.982
		c4.289-2.487,9.781-1.013,12.272,3.29c2.483,4.298,1.008,9.79-3.29,12.272l-15.561,8.982
		C432.947,152.315,431.403,152.702,429.876,152.702z"/>
	<path style="fill:#D5DCED;" d="M165.385,305.403c-3.106,0-6.123-1.61-7.79-4.491c-2.483-4.298-1.008-9.79,3.29-12.272l15.561-8.982
		c4.281-2.478,9.781-1.008,12.272,3.29c2.483,4.298,1.008,9.79-3.29,12.272l-15.561,8.982
		C168.455,305.017,166.911,305.403,165.385,305.403z"/>
	<path style="fill:#D5DCED;" d="M233.552,100.096c-3.106,0-6.123-1.61-7.79-4.491l-8.982-15.556
		c-2.483-4.294-1.008-9.79,3.29-12.272c4.272-2.478,9.781-1.013,12.272,3.29l8.982,15.556c2.483,4.294,1.008,9.79-3.29,12.272
		C236.622,99.711,235.078,100.096,233.552,100.096z"/>
	<path style="fill:#D5DCED;" d="M386.254,364.583c-3.106,0-6.123-1.61-7.79-4.491l-8.982-15.557
		c-2.483-4.294-1.008-9.79,3.29-12.272c4.281-2.487,9.781-1.013,12.272,3.29l8.982,15.557c2.483,4.294,1.008,9.79-3.29,12.272
		C389.324,364.197,387.78,364.583,386.254,364.583z"/>
</g>
<path style="fill:#B4E66E;" d="M412.985,410.816l-89.929-50.584c-10.532-5.924-23.72-4.113-32.266,4.432l-31.579,31.579
	c-9.433,9.433-24.364,10.636-35.071,2.68c-21.587-16.04-43.288-34.71-64.311-55.735c-21.023-21.025-39.695-42.725-55.735-64.311
	c-7.956-10.707-6.753-25.638,2.68-35.071l31.579-31.579c8.545-8.545,10.357-21.733,4.432-32.266L92.201,90.032
	c-8.642-15.364-29.846-17.759-42.776-4.83l-33.307,33.307c-43.407,43.407,3.874,161.06,105.601,262.789
	s219.383,149.008,262.789,105.601l33.307-33.307C430.744,440.663,428.349,419.459,412.985,410.816z"/>
<g>
	<path style="fill:#A0D755;" d="M115.368,235.211l22.985-22.985c8.545-8.545,10.357-21.733,4.432-32.266L92.201,90.032
		c-8.642-15.364-29.846-17.759-42.776-4.83L39.149,95.478L115.368,235.211z"/>
	<path style="fill:#A0D755;" d="M267.806,387.649l22.985-22.985c8.545-8.545,21.733-10.357,32.266-4.432l89.929,50.584
		c15.364,8.642,17.759,29.846,4.83,42.776l-10.276,10.276L267.806,387.649z"/>
</g>
<g>
	<path style="fill:#AFB9D2;" d="M467.087,224.561h-17.965c-4.965,0-8.982-4.022-8.982-8.982s4.017-8.982,8.982-8.982h17.965
		c4.965,0,8.982,4.022,8.982,8.982S472.052,224.561,467.087,224.561z"/>
	<path style="fill:#AFB9D2;" d="M161.684,224.561h-17.965c-4.965,0-8.982-4.022-8.982-8.982s4.017-8.982,8.982-8.982h17.965
		c4.965,0,8.982,4.022,8.982,8.982S166.649,224.561,161.684,224.561z"/>
</g>
</svg>